<svg width="40" height="40" viewBox="0 0 40 40" fill="none" xmlns="http://www.w3.org/2000/svg">
<path d="M20.0001 9.16667C24.6025 9.16667 28.3334 12.8976 28.3334 17.5V21.7396C28.3334 22.2294 28.5132 22.7022 28.8386 23.0683L32.781 27.5035C33.6408 28.4708 32.9541 30 31.6598 30H8.34035C7.04608 30 6.35937 28.4708 7.21924 27.5035L11.1616 23.0683C11.487 22.7022 11.6667 22.2294 11.6667 21.7396L11.6668 17.5C11.6668 12.8976 15.3977 9.16667 20.0001 9.16667ZM20.0001 9.16667V5M5 18.3335C5 13.1328 7.64671 8.55025 11.6667 5.85938M35 18.3335C35 13.1328 32.3533 8.55025 28.3333 5.85938M18.3333 35H21.6667" stroke="black" stroke-width="3" stroke-linecap="round" stroke-linejoin="round"/>
</svg>
