<svg width="39" height="37" viewBox="0 0 39 37" fill="none" xmlns="http://www.w3.org/2000/svg">
<path d="M26.6157 1V7.5625C26.6157 8.77063 27.8899 9.75 29.4617 9.75H38M10.9622 29.4375V20.6875M19.5004 29.4375V11.9375M28.0387 29.4375V20.6875M33.7309 4.28125C32.4642 3.41015 31.1498 2.37699 30.32 1.70598C29.7678 1.25946 29.0049 1 28.2034 1H6.69239C3.54871 1 1.00024 2.95874 1.00022 5.37498L1 31.6249C0.99998 34.0411 3.54844 35.9999 6.69215 35.9999L32.307 36C35.4507 36 37.9991 34.0413 37.9992 31.6251L38 8.43355C38 7.87421 37.7224 7.33653 37.2173 6.93384C36.2833 6.1892 34.7236 4.96397 33.7309 4.28125Z" stroke="#8B8787" stroke-width="2" stroke-linecap="round" stroke-linejoin="round"/>
</svg>
