<svg width="35" height="35" viewBox="0 0 35 35" fill="none" xmlns="http://www.w3.org/2000/svg">
<path d="M33.7969 15.3125L30.625 12.1428V4.375C30.625 3.17188 29.6406 2.1875 28.4375 2.1875H26.25C25.0469 2.1875 24.0625 3.17188 24.0625 4.375V5.58469L19.6875 1.21406C19.0903 0.649688 18.5434 0 17.5 0C16.4566 0 15.9097 0.649688 15.3125 1.21406L1.20312 15.3125C0.520625 16.0234 0 16.5419 0 17.5C0 18.7316 0.945 19.6875 2.1875 19.6875H4.375V32.8125C4.375 34.0156 5.35938 35 6.5625 35H10.9375C12.1456 35 13.125 34.0206 13.125 32.8125V24.0625C13.125 22.8594 14.1094 21.875 15.3125 21.875H19.6875C20.8906 21.875 21.875 22.8594 21.875 24.0625V32.8125C21.875 34.0206 21.7606 35 22.9688 35H28.4375C29.6406 35 30.625 34.0156 30.625 32.8125V19.6875H32.8125C34.055 19.6875 35 18.7316 35 17.5C35 16.5419 34.4794 16.0234 33.7969 15.3125Z" fill="black"/>
</svg>
