<svg width="32" height="32" viewBox="0 0 32 32" fill="none" xmlns="http://www.w3.org/2000/svg">
<path d="M29.7188 13.875L27 11.1581V4.5C27 3.46875 26.1563 2.625 25.125 2.625H23.25C22.2188 2.625 21.375 3.46875 21.375 4.5V5.53687L17.625 1.79063C17.1131 1.30688 16.6444 0.75 15.75 0.75C14.8556 0.75 14.3869 1.30688 13.875 1.79063L1.78125 13.875C1.19625 14.4844 0.75 14.9288 0.75 15.75C0.75 16.8056 1.56 17.625 2.625 17.625H4.5V28.875C4.5 29.9063 5.34375 30.75 6.375 30.75H10.125C11.1605 30.75 12 29.9105 12 28.875V21.375C12 20.3438 12.8438 19.5 13.875 19.5H17.625C18.6563 19.5 19.5 20.3438 19.5 21.375V28.875C19.5 29.9105 19.402 30.75 20.4375 30.75H25.125C26.1563 30.75 27 29.9063 27 28.875V17.625H28.875C29.94 17.625 30.75 16.8056 30.75 15.75C30.75 14.9288 30.3038 14.4844 29.7188 13.875Z" stroke="#1E1E1E" stroke-width="1.5" stroke-linejoin="round"/>
</svg>
