<svg width="32" height="32" viewBox="0 0 32 32" fill="none" xmlns="http://www.w3.org/2000/svg">
<path d="M21.5195 0.75V6.375C21.5195 7.41054 22.5526 8.25 23.8271 8.25H30.75M8.82745 25.125V17.625M15.7504 25.125V10.125M22.6733 25.125V17.625M27.2885 3.5625C26.2615 2.81585 25.1957 1.93028 24.5229 1.35512C24.0752 0.972398 23.4566 0.75 22.8068 0.75H5.36545C2.81652 0.75 0.750195 2.42892 0.750178 4.49998L0.75 26.9999C0.749984 29.071 2.8163 30.7499 5.36525 30.7499L26.1341 30.75C28.683 30.75 30.7493 29.0711 30.7494 27.0001L30.75 7.12162C30.75 6.64218 30.5249 6.18131 30.1154 5.83615C29.3581 5.19789 28.0935 4.14768 27.2885 3.5625Z" stroke="#1E1E1E" stroke-width="1.5" stroke-linecap="round" stroke-linejoin="round"/>
</svg>
