<svg width="40" height="40" viewBox="0 0 40 40" fill="none" xmlns="http://www.w3.org/2000/svg">
<path d="M19.6816 0.5C30.2753 0.500132 38.8632 9.08798 38.8633 19.6816C38.8632 30.2753 30.2753 38.8631 19.6816 38.8633C9.08796 38.8632 0.500096 30.2753 0.5 19.6816C0.500096 9.08796 9.08796 0.500096 19.6816 0.5ZM12.7725 29.7725C11.1156 29.7725 9.77251 31.1156 9.77246 32.7725V33.7188C12.5726 35.699 15.9912 36.8632 19.6816 36.8633C23.3722 36.8632 26.7907 35.6991 29.5908 33.7188V32.7725C29.5908 31.1157 28.2476 29.7726 26.5908 29.7725H12.7725ZM19.6816 2.5C10.1925 2.5001 2.5001 10.1925 2.5 19.6816C2.50005 24.5696 4.54097 28.9807 7.81738 32.1094C8.14186 29.6615 10.2359 27.7725 12.7725 27.7725H26.5908C29.1272 27.7726 31.2204 29.6616 31.5449 32.1094C34.8215 28.9807 36.8632 24.5698 36.8633 19.6816C36.8632 10.1925 29.1707 2.50013 19.6816 2.5ZM19.6816 7.77246C24.2503 7.77259 27.9549 11.4763 27.9551 16.0449C27.9551 20.6137 24.2504 24.3182 19.6816 24.3184C15.1129 24.3182 11.4092 20.6137 11.4092 16.0449C11.4094 11.4763 15.113 7.7726 19.6816 7.77246ZM19.6816 9.77246C16.2176 9.7726 13.4094 12.5808 13.4092 16.0449C13.4092 19.5092 16.2174 22.3182 19.6816 22.3184C23.1459 22.3182 25.9551 19.5092 25.9551 16.0449C25.9549 12.5808 23.1457 9.77259 19.6816 9.77246Z" fill="black"/>
<path d="M19.6816 0.5L19.6816 0H19.6816L19.6816 0.5ZM38.8633 19.6816L39.3633 19.6816V19.6816L38.8633 19.6816ZM19.6816 38.8633L19.6816 39.3633H19.6816L19.6816 38.8633ZM0.5 19.6816L0 19.6816V19.6816L0.5 19.6816ZM9.77246 32.7725L9.27246 32.7724V32.7725H9.77246ZM9.77246 33.7188H9.27246V33.9776L9.48376 34.127L9.77246 33.7188ZM19.6816 36.8633L19.6816 37.3633H19.6816L19.6816 36.8633ZM29.5908 33.7188L29.8795 34.127L30.0908 33.9775V33.7188H29.5908ZM29.5908 32.7725H30.0908V32.7724L29.5908 32.7725ZM26.5908 29.7725L26.5908 29.2725H26.5908V29.7725ZM19.6816 2.5L19.6816 2H19.6816L19.6816 2.5ZM2.5 19.6816L2 19.6816V19.6816L2.5 19.6816ZM7.81738 32.1094L7.47208 32.471L8.18374 33.1506L8.31305 32.1751L7.81738 32.1094ZM26.5908 27.7725L26.5908 27.2725H26.5908V27.7725ZM31.5449 32.1094L31.0493 32.1751L31.1786 33.1505L31.8902 32.471L31.5449 32.1094ZM36.8633 19.6816L37.3633 19.6816V19.6816L36.8633 19.6816ZM19.6816 7.77246L19.6817 7.27246H19.6816L19.6816 7.77246ZM27.9551 16.0449H28.4551V16.0449L27.9551 16.0449ZM19.6816 24.3184L19.6816 24.8184H19.6817L19.6816 24.3184ZM11.4092 16.0449L10.9092 16.0449V16.0449H11.4092ZM19.6816 9.77246L19.6817 9.27246H19.6816L19.6816 9.77246ZM13.4092 16.0449L12.9092 16.0449V16.0449H13.4092ZM19.6816 22.3184L19.6816 22.8184H19.6817L19.6816 22.3184ZM25.9551 16.0449H26.4551V16.0449L25.9551 16.0449ZM19.6816 0.5L19.6816 1C29.9992 1.00013 38.3632 9.36412 38.3633 19.6816L38.8633 19.6816L39.3633 19.6816C39.3632 8.81183 30.5514 0.000135392 19.6816 0L19.6816 0.5ZM38.8633 19.6816L38.3633 19.6816C38.3632 29.9992 29.9992 38.3632 19.6816 38.3633L19.6816 38.8633L19.6816 39.3633C30.5514 39.3631 39.3632 30.5514 39.3633 19.6816L38.8633 19.6816ZM19.6816 38.8633L19.6816 38.3633C9.3641 38.3632 1.00009 29.9992 1 19.6816L0.5 19.6816L0 19.6816C9.84371e-05 30.5515 8.81181 39.3632 19.6816 39.3633L19.6816 38.8633ZM0.5 19.6816L1 19.6816C1.00009 9.3641 9.3641 1.00009 19.6816 1L19.6816 0.5L19.6816 0C8.81181 9.83775e-05 9.83775e-05 8.81181 0 19.6816L0.5 19.6816ZM12.7725 29.7725V29.2725C10.8395 29.2725 9.27252 30.8395 9.27246 32.7724L9.77246 32.7725L10.2725 32.7725C10.2725 31.3918 11.3918 30.2725 12.7725 30.2725V29.7725ZM9.77246 32.7725H9.27246V33.7188H9.77246H10.2725V32.7725H9.77246ZM9.77246 33.7188L9.48376 34.127C12.3655 36.1649 15.8843 37.3632 19.6816 37.3633L19.6816 36.8633L19.6816 36.3633C16.098 36.3632 12.7797 35.233 10.0612 33.3105L9.77246 33.7188ZM19.6816 36.8633L19.6816 37.3633C23.479 37.3632 26.9978 36.165 29.8795 34.127L29.5908 33.7188L29.3021 33.3105C26.5836 35.2331 23.2654 36.3632 19.6816 36.3633L19.6816 36.8633ZM29.5908 33.7188H30.0908V32.7725H29.5908H29.0908V33.7188H29.5908ZM29.5908 32.7725L30.0908 32.7724C30.0908 30.8395 28.5237 29.2726 26.5908 29.2725L26.5908 29.7725L26.5908 30.2725C27.9714 30.2725 29.0908 31.3919 29.0908 32.7725L29.5908 32.7725ZM26.5908 29.7725V29.2725H12.7725V29.7725V30.2725H26.5908V29.7725ZM19.6816 2.5L19.6816 2C9.91638 2.0001 2.0001 9.91638 2 19.6816L2.5 19.6816L3 19.6816C3.00009 10.4687 10.4687 3.00009 19.6816 3L19.6816 2.5ZM2.5 19.6816L2 19.6816C2.00005 24.7118 4.10097 29.2519 7.47208 32.471L7.81738 32.1094L8.16269 31.7478C4.98098 28.7096 3.00005 24.4274 3 19.6816L2.5 19.6816ZM7.81738 32.1094L8.31305 32.1751C8.60504 29.9723 10.4902 28.2725 12.7725 28.2725V27.7725V27.2725C9.98168 27.2725 7.67868 29.3507 7.32172 32.0437L7.81738 32.1094ZM12.7725 27.7725V28.2725H26.5908V27.7725V27.2725H12.7725V27.7725ZM26.5908 27.7725L26.5908 28.2725C28.8728 28.2725 30.7572 29.9723 31.0493 32.1751L31.5449 32.1094L32.0406 32.0437C31.6836 29.351 29.3816 27.2726 26.5908 27.2725L26.5908 27.7725ZM31.5449 32.1094L31.8902 32.471C35.2614 29.252 37.3632 24.712 37.3633 19.6816L36.8633 19.6816L36.3633 19.6816C36.3632 24.4275 34.3815 28.7095 31.1996 31.7478L31.5449 32.1094ZM36.8633 19.6816L37.3633 19.6816C37.3632 9.9164 29.4469 2.00014 19.6816 2L19.6816 2.5L19.6816 3C28.8946 3.00013 36.3632 10.4687 36.3633 19.6816L36.8633 19.6816ZM19.6816 7.77246L19.6816 8.27246C23.9742 8.27258 27.4549 11.7525 27.4551 16.0449L27.9551 16.0449L28.4551 16.0449C28.4549 11.2 24.5264 7.2726 19.6817 7.27246L19.6816 7.77246ZM27.9551 16.0449H27.4551C27.4551 20.3376 23.9743 23.8182 19.6816 23.8184L19.6816 24.3184L19.6817 24.8184C24.5266 24.8182 28.4551 20.8899 28.4551 16.0449H27.9551ZM19.6816 24.3184L19.6817 23.8184C15.3891 23.8182 11.9092 20.3377 11.9092 16.0449H11.4092H10.9092C10.9092 20.8898 14.8367 24.8182 19.6816 24.8184L19.6816 24.3184ZM11.4092 16.0449L11.9092 16.0449C11.9094 11.7524 15.3891 8.2726 19.6817 8.27246L19.6816 7.77246L19.6816 7.27246C14.8368 7.27261 10.9094 11.2001 10.9092 16.0449L11.4092 16.0449ZM19.6816 9.77246L19.6816 9.27246C15.9414 9.27262 12.9094 12.3047 12.9092 16.0449L13.4092 16.0449L13.9092 16.0449C13.9094 12.857 16.4937 10.2726 19.6817 10.2725L19.6816 9.77246ZM13.4092 16.0449H12.9092C12.9092 19.7852 15.9412 22.8182 19.6816 22.8184L19.6816 22.3184L19.6817 21.8184C16.4937 21.8182 13.9092 19.2331 13.9092 16.0449H13.4092ZM19.6816 22.3184L19.6817 22.8184C23.422 22.8182 26.4551 19.7853 26.4551 16.0449H25.9551H25.4551C25.4551 19.233 22.8697 21.8182 19.6816 21.8184L19.6816 22.3184ZM25.9551 16.0449L26.4551 16.0449C26.4549 12.3046 23.4218 9.2726 19.6817 9.27246L19.6816 9.77246L19.6816 10.2725C22.8697 10.2726 25.4549 12.8571 25.4551 16.0449L25.9551 16.0449Z" fill="black"/>
</svg>
