<svg width="32" height="32" viewBox="0 0 32 32" fill="none" xmlns="http://www.w3.org/2000/svg">
<path fill-rule="evenodd" clip-rule="evenodd" d="M18.5438 2.94378C17.8313 0.0187386 13.6687 0.0187386 12.9562 2.94378C12.8498 3.38332 12.6411 3.79153 12.3472 4.1352C12.0532 4.47886 11.6823 4.74828 11.2646 4.92151C10.8468 5.09474 10.3941 5.1669 9.9432 5.13211C9.49231 5.09732 9.056 4.95657 8.66978 4.72131C6.0972 3.15379 3.15336 6.09758 4.72091 8.67012C5.73344 10.3314 4.83528 12.4989 2.94522 12.9583C0.0182584 13.669 0.0182584 17.8334 2.94522 18.5422C3.38489 18.6487 3.79317 18.8575 4.13685 19.1517C4.48052 19.4458 4.74985 19.817 4.92292 20.235C5.09599 20.6529 5.1679 21.1058 5.1328 21.5569C5.09769 22.0079 4.95656 22.4442 4.72091 22.8303C3.15336 25.4029 6.0972 28.3467 8.66978 26.7792C9.05593 26.5435 9.49227 26.4024 9.94329 26.3673C10.3943 26.3322 10.8472 26.4041 11.2652 26.5771C11.6832 26.7502 12.0543 27.0195 12.3485 27.3632C12.6427 27.7069 12.8515 28.1152 12.958 28.5548C13.6687 31.4817 17.8332 31.4817 18.542 28.5548C18.6488 28.1154 18.8579 27.7074 19.1521 27.364C19.4464 27.0205 19.8175 26.7514 20.2353 26.5783C20.6531 26.4053 21.1059 26.3333 21.5568 26.3682C22.0077 26.4031 22.444 26.5439 22.8302 26.7792C25.4028 28.3467 28.3466 25.4029 26.7791 22.8303C26.5439 22.4441 26.4031 22.0078 26.3682 21.5569C26.3333 21.106 26.4053 20.6533 26.5783 20.2355C26.7513 19.8176 27.0205 19.4465 27.3639 19.1523C27.7073 18.8581 28.1153 18.649 28.5548 18.5422C31.4817 17.8315 31.4817 13.6671 28.5548 12.9583C28.1151 12.8518 27.7068 12.643 27.3632 12.3488C27.0195 12.0546 26.7501 11.6835 26.5771 11.2655C26.404 10.8475 26.3321 10.3946 26.3672 9.94361C26.4023 9.49261 26.5434 9.05627 26.7791 8.67012C28.3466 6.09758 25.4028 3.15379 22.8302 4.72131C22.4441 4.95697 22.0077 5.09809 21.5567 5.1332C21.1057 5.1683 20.6528 5.09639 20.2348 4.92333C19.8168 4.75026 19.4457 4.48093 19.1515 4.13726C18.8573 3.79359 18.6485 3.38531 18.542 2.94566L18.5438 2.94378Z" stroke="#1E1E1E" stroke-width="1.5"/>
<path d="M19.0833 15.75C19.0833 17.5909 17.5909 19.0833 15.75 19.0833C13.9091 19.0833 12.4167 17.5909 12.4167 15.75C12.4167 13.9091 13.9091 12.4167 15.75 12.4167C17.5909 12.4167 19.0833 13.9091 19.0833 15.75Z" stroke="#1E1E1E" stroke-width="1.5"/>
</svg>
