<svg width="40" height="37" viewBox="0 0 40 37" fill="none" xmlns="http://www.w3.org/2000/svg">
<path fill-rule="evenodd" clip-rule="evenodd" d="M23.5389 3.55941C22.6363 0.146862 17.3637 0.146862 16.4611 3.55941C16.3264 4.07221 16.0621 4.54845 15.6898 4.9494C15.3174 5.35034 14.8476 5.66466 14.3185 5.86676C13.7893 6.06886 13.2159 6.15305 12.6447 6.11246C12.0736 6.07188 11.5209 5.90767 11.0317 5.6332C7.77312 3.80442 4.04425 7.23885 6.02981 10.2401C7.31235 12.1783 6.17469 14.7071 3.78062 15.243C0.0731273 16.0721 0.0731273 20.9306 3.78062 21.7575C4.33752 21.8818 4.85469 22.1254 5.29 22.4686C5.72532 22.8118 6.06648 23.2448 6.2857 23.7325C6.50492 24.2201 6.59601 24.7485 6.55154 25.2747C6.50708 25.8008 6.32831 26.3099 6.02981 26.7604C4.04425 29.7617 7.77312 33.1961 11.0317 31.3673C11.5208 31.0924 12.0735 30.9278 12.6448 30.8868C13.2161 30.8459 13.7898 30.9298 14.3193 31.1317C14.8487 31.3336 15.3188 31.6478 15.6914 32.0487C16.0641 32.4497 16.3286 32.926 16.4635 33.4389C17.3637 36.8537 22.6387 36.8537 23.5365 33.4389C23.6719 32.9263 23.9367 32.4503 24.3094 32.0496C24.682 31.6489 25.1521 31.3349 25.6814 31.1331C26.2106 30.9312 26.7841 30.8472 27.3553 30.8879C27.9264 30.9287 28.479 31.0929 28.9683 31.3673C32.2269 33.1961 35.9558 29.7617 33.9702 26.7604C33.6722 26.3098 33.4939 25.8008 33.4497 25.2748C33.4055 24.7487 33.4967 24.2205 33.7158 23.733C33.935 23.2456 34.2759 22.8126 34.7109 22.4693C35.146 22.1261 35.6628 21.8822 36.2194 21.7575C39.9269 20.9284 39.9269 16.0699 36.2194 15.243C35.6625 15.1188 35.1453 14.8751 34.71 14.5319C34.2747 14.1887 33.9335 13.7557 33.7143 13.2681C33.4951 12.7805 33.404 12.2521 33.4485 11.7259C33.4929 11.1997 33.6717 10.6906 33.9702 10.2401C35.9558 7.23885 32.2269 3.80442 28.9683 5.6332C28.4792 5.90813 27.9265 6.07278 27.3552 6.11373C26.7839 6.15469 26.2102 6.07079 25.6808 5.86888C25.1513 5.66697 24.6812 5.35275 24.3086 4.9518C23.9359 4.55086 23.6714 4.07453 23.5365 3.5616L23.5389 3.55941Z" stroke="#8B8787" stroke-width="2"/>
<path d="M24.2222 18.5C24.2222 20.6478 22.3319 22.3889 20 22.3889C17.6681 22.3889 15.7778 20.6478 15.7778 18.5C15.7778 16.3522 17.6681 14.6111 20 14.6111C22.3319 14.6111 24.2222 16.3522 24.2222 18.5Z" stroke="#8B8787" stroke-width="2"/>
</svg>
